<svg width="171" height="40" viewBox="0 0 171 40" fill="none" xmlns="http://www.w3.org/2000/svg">
<path fill-rule="evenodd" clip-rule="evenodd" d="M64.9829 28.0677V35.5776V39.2812H74.1805V25.549V20.0506C74.0304 20.168 73.8806 20.2859 73.7311 20.4041C72.7401 21.1883 71.7619 21.9896 70.7965 22.8059C69.829 23.6242 68.8763 24.4575 67.9344 25.3078C67.656 25.5592 67.3787 25.8121 67.1027 26.0663C66.3882 26.7242 65.6816 27.3915 64.9829 28.0677Z" fill="white"/>
<path fill-rule="evenodd" clip-rule="evenodd" d="M91.4426 5.41504C91.5723 5.41504 91.7014 5.41598 91.8298 5.41786C91.7117 5.47489 91.5938 5.53216 91.4761 5.58968C89.5352 6.53695 87.6391 7.55359 85.7817 8.60187L85.769 8.60909L84.6761 9.24004L84.6672 9.24512L84.6114 9.27709L84.5841 9.29269L84.562 9.30535C84.2465 9.48603 83.8701 9.70152 83.4943 9.93871L81.3423 11.2684L81.3119 11.288L81.184 11.3712C80.5858 11.7608 79.9726 12.1607 79.3603 12.5703C79.0943 12.7461 78.8281 12.9239 78.5619 13.1039L78.5395 13.1191V5.41504H91.4426Z" fill="white"/>
<path d="M78.5395 39.2812H91.5749C95.0158 39.2812 97.9989 38.6087 100.524 37.2638C103.05 35.9078 105.002 33.9676 106.38 31.4431C107.759 28.9075 108.448 25.8759 108.448 22.3481C108.448 18.8204 107.753 15.7943 106.364 13.2697C104.985 10.7342 103.022 8.79394 100.475 7.449C100.334 7.37359 100.191 7.30029 100.047 7.22908C99.6894 7.40138 99.3328 7.57603 98.9774 7.75281C98.7116 7.88499 98.4465 8.01836 98.182 8.15282C97.8449 8.3242 97.5088 8.49735 97.1736 8.67208C97.1695 8.67415 97.1656 8.67622 97.1617 8.67829L97.1555 8.68166C97.1497 8.68486 97.1438 8.68806 97.1374 8.69125L89.5768 13.2201H90.9794C92.7439 13.2201 94.2328 13.4902 95.4459 14.0304C96.67 14.5706 97.5964 15.5021 98.225 16.825C98.8646 18.1479 99.1845 19.989 99.1845 22.3481C99.1845 24.7073 98.8702 26.5483 98.2415 27.8712C97.624 29.1941 96.7196 30.1257 95.5286 30.6658C94.3485 31.206 92.9204 31.4761 91.2441 31.4761H87.7371V14.3845L87.7318 14.388L87.663 14.4344L87.6546 14.44L87.6374 14.4516L87.6175 14.465L87.6173 14.4652L87.5666 14.4994L87.5659 14.4998L87.5148 14.5342L87.5146 14.5344L87.4684 14.5656C87.3579 14.6402 87.2478 14.7152 87.1384 14.7913C87.0345 14.8636 86.9313 14.937 86.8291 15.0123L81.0324 19.4301C81.0324 19.4301 80.977 19.4749 80.9492 19.4983C80.136 20.1654 79.3327 20.8438 78.5395 21.533V39.2812Z" fill="white"/>
<path d="M91.4427 5.41504H78.5396V13.1191L78.562 13.1039C78.8282 12.9239 79.0944 12.7461 79.3603 12.5703C79.9727 12.1607 80.5859 11.7608 81.1841 11.3712L81.312 11.288L81.3424 11.2684L83.4944 9.9387C83.8702 9.70152 84.2465 9.48603 84.5621 9.30535L84.5621 9.30535L84.5842 9.29269L84.6115 9.27709L84.6673 9.24513L84.6761 9.24004L85.769 8.60909L85.7818 8.60187C87.6391 7.55359 89.5353 6.53695 91.4762 5.58968C91.5939 5.53216 91.7118 5.47489 91.8298 5.41786C91.7014 5.41598 91.5724 5.41504 91.4427 5.41504Z" fill="#EF6C00"/>
<path d="M74.18 5.41504H64.9824V23.9134L65.0567 23.8449C65.34 23.5841 65.6244 23.3247 65.9101 23.0667L65.9105 23.0664C66.8758 22.195 67.8529 21.3403 68.846 20.5003L68.8464 20.4999C69.8357 19.6635 70.8391 18.8415 71.8567 18.0362L71.8581 18.0351C72.0581 17.877 72.2586 17.7195 72.4596 17.5627C73.0292 17.1184 73.6027 16.6792 74.18 16.2452V5.41504Z" fill="#EF6C00"/>
<path d="M170.995 5.41504V39.2812H163.319L151.078 21.4882H150.879V39.2812H141.682V5.41504H149.49L161.533 23.1419H161.797V5.41504H170.995Z" fill="white"/>
<path d="M0.959473 12.8233V5.41504H30.4051V12.8233H20.2149V39.2812H11.1496V12.8233H0.959473Z" fill="white"/>
<path fill-rule="evenodd" clip-rule="evenodd" d="M62.1721 39.2502L59.3015 33.9819C59.3104 33.9718 59.3194 33.9617 59.3284 33.9515C59.3165 33.965 59.3045 33.9785 59.2926 33.992L62.1663 39.2582C62.1683 39.2556 62.1702 39.2529 62.1721 39.2502Z" fill="white"/>
<path fill-rule="evenodd" clip-rule="evenodd" d="M33.8662 5.41124V39.2774H43.0638V28.0989H46.247H48.1589C50.7396 28.0989 52.9948 27.6745 54.9248 26.8256C55.054 26.7691 55.1814 26.7108 55.3068 26.6506C57.0643 25.8076 58.4423 24.6092 59.4408 23.0554C60.5216 21.3907 61.062 19.3457 61.062 16.9204C61.062 14.5172 60.5382 12.4557 59.4905 10.7359C58.4428 9.01612 56.976 7.69873 55.0902 6.78373C53.2044 5.86873 51.0042 5.41124 48.4898 5.41124H33.8662ZM59.3015 33.9819L59.2926 33.992L62.1663 39.2582L62.1721 39.2502L59.3015 33.9819ZM43.0638 20.9553H46.3062C47.3869 20.9553 48.3078 20.823 49.0688 20.5584C49.8407 20.2828 50.4308 19.8473 50.8388 19.252C51.2579 18.6567 51.4674 17.8795 51.4674 16.9204C51.4674 15.9503 51.2579 15.1621 50.8388 14.5558C50.4308 13.9384 49.8407 13.4864 49.0688 13.1998C48.3078 12.9021 47.3869 12.7533 46.3062 12.7533H43.0638V20.9553Z" fill="white"/>
<path d="M54.9248 26.8256C52.9948 27.6745 50.7396 28.0989 48.1589 28.0989H46.247L52.1953 39.2774H62.1869L62.1721 39.2502L62.1663 39.2582L59.2926 33.992L59.3015 33.9819L55.3068 26.6506C55.1814 26.7108 55.054 26.7691 54.9248 26.8256Z" fill="white"/>
<path d="M97.1738 8.67167C100.068 7.16282 103.034 5.77117 106.101 4.62674L107.248 4.18347C107.504 4.08196 107.764 3.99581 108.025 3.90955C108.153 3.86723 108.282 3.82487 108.409 3.78068L110.741 2.99428L113.106 2.31444L114.293 1.97772L115.493 1.69641C115.782 1.62952 116.071 1.56151 116.36 1.4935L116.362 1.49289C116.873 1.37259 117.384 1.25228 117.897 1.13804L120.329 0.694768C120.461 0.671104 120.593 0.646758 120.725 0.622399C120.998 0.572169 121.271 0.521881 121.546 0.477391L122.771 0.317552L125.23 1.15191e-05L122.754 0.13854L121.514 0.208864C121.252 0.23192 120.99 0.261017 120.728 0.290114C120.579 0.30674 120.429 0.323364 120.28 0.338863L117.808 0.605259C117.289 0.682094 116.77 0.764895 116.252 0.847735L116.25 0.848124C115.949 0.896124 115.649 0.944135 115.348 0.990998L114.119 1.18706L112.9 1.44067L110.457 1.95428L108.038 2.57658C107.898 2.61472 107.756 2.6505 107.614 2.68631C107.352 2.75255 107.089 2.8189 106.832 2.90051L105.637 3.26494C103.12 4.00217 100.651 4.89881 98.2176 5.89373C97.5559 6.16427 96.8969 6.44208 96.2404 6.72593C95.081 7.22036 93.9345 7.74888 92.8007 8.30298C90.9275 9.21725 89.0861 10.204 87.2661 11.2312L86.1771 11.8599L86.0852 11.9125L86.0849 11.9127C85.7513 12.1037 85.4185 12.2943 85.0945 12.4992L82.9527 13.8227L82.9524 13.8229L82.8321 13.9012C82.2308 14.2928 81.6298 14.6848 81.0325 15.0843C80.7721 15.2565 80.5124 15.4299 80.2537 15.6049C79.7565 15.9411 79.2627 16.2832 78.7735 16.6337C77.2629 17.7009 75.7772 18.8045 74.3177 19.9431C74.1217 20.096 73.9263 20.2495 73.7312 20.4037C72.7403 21.1879 71.7621 21.9892 70.7967 22.8055C69.8291 23.6238 68.8765 24.4571 67.9346 25.3075C67.6562 25.5588 67.3789 25.8117 67.1029 26.0659C65.8319 27.2362 64.5857 28.4362 63.3654 29.6635C62.1719 30.8612 61.0062 32.0867 59.8682 33.3504C59.6877 33.5494 59.5072 33.7495 59.3284 33.9515L59.3015 33.9819L62.1721 39.2502C62.2958 39.0781 62.4215 38.9059 62.5491 38.7337C62.6408 38.608 62.7324 38.4844 62.8262 38.3586C62.9711 38.1626 63.1181 37.9686 63.2652 37.7747C63.4776 37.4883 63.6968 37.207 63.9167 36.9248L63.9983 36.8199C64.9851 35.554 66.008 34.3052 67.0608 33.0819C67.3506 32.7452 67.6405 32.4106 67.9346 32.0781L73.7312 25.9638C73.926 25.7736 74.1215 25.584 74.3177 25.3951C76.4464 23.3455 78.6586 21.377 80.9494 19.4979C80.9771 19.4745 81.0325 19.4297 81.0325 19.4297L86.8293 15.0119C87.0393 14.8573 87.2533 14.7107 87.4685 14.5652C87.5181 14.5317 87.5678 14.4983 87.6174 14.4648L87.6177 14.4646C87.6557 14.439 87.6939 14.4133 87.732 14.3876L87.767 14.364L88.5491 13.8355L92.7403 11.3249L92.8433 11.2632L97.1376 8.69085C97.144 8.68766 97.1498 8.68446 97.1557 8.68126L97.1619 8.67789C97.1657 8.67582 97.1697 8.67375 97.1738 8.67167Z" fill="white"/>
<path fill-rule="evenodd" clip-rule="evenodd" d="M112.704 18.6436V39.2808H137.054V31.8725H121.901V26.0518H137.054V18.6436H121.901H112.704Z" fill="white"/>
<path d="M137.12 5.41504H112.704V12.8233H121.901H137.12V5.41504Z" fill="#EF6C00"/>
</svg>
